<mxfile host="app.diagrams.net" modified="2023-09-24T20:17:57.485Z" agent="Mozilla/5.0 (Windows NT 10.0; Win64; x64) AppleWebKit/537.36 (KHTML, like Gecko) Chrome/117.0.0.0 Safari/537.36" etag="SCTeRXwYjEUuHEeGUPvO" version="21.8.2" type="device">
  <diagram name="Page-1" id="1S1Fwlqb4rco6B_nXEz9">
    <mxGraphModel dx="874" dy="490" grid="1" gridSize="10" guides="1" tooltips="1" connect="1" arrows="1" fold="1" page="1" pageScale="1" pageWidth="827" pageHeight="1169" math="0" shadow="0">
      <root>
        <mxCell id="0" />
        <mxCell id="1" parent="0" />
        <mxCell id="U2t02pCkMEgEyR6Hdg83-1" value="Orgchart" style="swimlane;startSize=20;horizontal=1;containerType=tree;newEdgeStyle={&quot;edgeStyle&quot;:&quot;elbowEdgeStyle&quot;,&quot;startArrow&quot;:&quot;none&quot;,&quot;endArrow&quot;:&quot;none&quot;};" parent="1" vertex="1">
          <mxGeometry x="84" y="40" width="660" height="420" as="geometry" />
        </mxCell>
        <mxCell id="U2t02pCkMEgEyR6Hdg83-5" value="Jugetes" style="whiteSpace=wrap;html=1;align=center;verticalAlign=middle;treeFolding=1;treeMoving=1;newEdgeStyle={&quot;edgeStyle&quot;:&quot;elbowEdgeStyle&quot;,&quot;startArrow&quot;:&quot;none&quot;,&quot;endArrow&quot;:&quot;none&quot;};" parent="U2t02pCkMEgEyR6Hdg83-1" vertex="1">
          <mxGeometry x="30" y="330" width="100" height="60" as="geometry" />
        </mxCell>
        <mxCell id="U2t02pCkMEgEyR6Hdg83-6" value="Escolares" style="whiteSpace=wrap;html=1;align=center;verticalAlign=middle;treeFolding=1;treeMoving=1;newEdgeStyle={&quot;edgeStyle&quot;:&quot;elbowEdgeStyle&quot;,&quot;startArrow&quot;:&quot;none&quot;,&quot;endArrow&quot;:&quot;none&quot;};" parent="U2t02pCkMEgEyR6Hdg83-1" vertex="1">
          <mxGeometry x="170" y="330" width="100" height="60" as="geometry" />
        </mxCell>
        <UserObject label="Hogar" treeRoot="1" id="U2t02pCkMEgEyR6Hdg83-8">
          <mxCell style="whiteSpace=wrap;html=1;align=center;treeFolding=1;treeMoving=1;newEdgeStyle={&quot;edgeStyle&quot;:&quot;elbowEdgeStyle&quot;,&quot;startArrow&quot;:&quot;none&quot;,&quot;endArrow&quot;:&quot;none&quot;};" parent="U2t02pCkMEgEyR6Hdg83-1" vertex="1">
            <mxGeometry x="280" y="330" width="120" height="60" as="geometry" />
          </mxCell>
        </UserObject>
        <UserObject label="Belleza" treeRoot="1" id="U2t02pCkMEgEyR6Hdg83-10">
          <mxCell style="whiteSpace=wrap;html=1;align=center;treeFolding=1;treeMoving=1;newEdgeStyle={&quot;edgeStyle&quot;:&quot;elbowEdgeStyle&quot;,&quot;startArrow&quot;:&quot;none&quot;,&quot;endArrow&quot;:&quot;none&quot;};" parent="U2t02pCkMEgEyR6Hdg83-1" vertex="1">
            <mxGeometry x="410" y="330" width="120" height="60" as="geometry" />
          </mxCell>
        </UserObject>
        <UserObject label="Home Page&amp;nbsp;" treeRoot="1" id="U2t02pCkMEgEyR6Hdg83-4">
          <mxCell style="whiteSpace=wrap;html=1;align=center;treeFolding=1;treeMoving=1;newEdgeStyle={&quot;edgeStyle&quot;:&quot;elbowEdgeStyle&quot;,&quot;startArrow&quot;:&quot;none&quot;,&quot;endArrow&quot;:&quot;none&quot;};" parent="U2t02pCkMEgEyR6Hdg83-1" vertex="1">
            <mxGeometry x="60" y="130" width="120" height="60" as="geometry" />
          </mxCell>
        </UserObject>
        <mxCell id="U2t02pCkMEgEyR6Hdg83-2" value="" style="edgeStyle=elbowEdgeStyle;elbow=vertical;sourcePerimeterSpacing=0;targetPerimeterSpacing=0;startArrow=none;endArrow=none;rounded=0;curved=0;exitX=0.5;exitY=1;exitDx=0;exitDy=0;" parent="U2t02pCkMEgEyR6Hdg83-1" source="U2t02pCkMEgEyR6Hdg83-4" edge="1">
          <mxGeometry relative="1" as="geometry">
            <mxPoint x="120" y="230" as="sourcePoint" />
            <mxPoint x="80" y="330" as="targetPoint" />
            <Array as="points">
              <mxPoint x="100" y="300" />
            </Array>
          </mxGeometry>
        </mxCell>
        <mxCell id="U2t02pCkMEgEyR6Hdg83-3" value="" style="edgeStyle=elbowEdgeStyle;elbow=vertical;sourcePerimeterSpacing=0;targetPerimeterSpacing=0;startArrow=none;endArrow=none;rounded=0;curved=0;" parent="U2t02pCkMEgEyR6Hdg83-1" source="U2t02pCkMEgEyR6Hdg83-4" target="U2t02pCkMEgEyR6Hdg83-6" edge="1">
          <mxGeometry relative="1" as="geometry">
            <Array as="points">
              <mxPoint x="120" y="300" />
            </Array>
          </mxGeometry>
        </mxCell>
        <mxCell id="U2t02pCkMEgEyR6Hdg83-7" value="" style="edgeStyle=elbowEdgeStyle;rounded=0;orthogonalLoop=1;jettySize=auto;html=1;elbow=vertical;startArrow=none;endArrow=none;" parent="U2t02pCkMEgEyR6Hdg83-1" source="U2t02pCkMEgEyR6Hdg83-4" target="U2t02pCkMEgEyR6Hdg83-8" edge="1">
          <mxGeometry relative="1" as="geometry">
            <Array as="points">
              <mxPoint x="230" y="300" />
            </Array>
          </mxGeometry>
        </mxCell>
        <mxCell id="U2t02pCkMEgEyR6Hdg83-9" value="" style="edgeStyle=elbowEdgeStyle;rounded=0;orthogonalLoop=1;jettySize=auto;html=1;elbow=vertical;startArrow=none;endArrow=none;" parent="U2t02pCkMEgEyR6Hdg83-1" source="U2t02pCkMEgEyR6Hdg83-4" target="U2t02pCkMEgEyR6Hdg83-10" edge="1">
          <mxGeometry relative="1" as="geometry">
            <Array as="points">
              <mxPoint x="120" y="300" />
              <mxPoint x="300" y="300" />
            </Array>
          </mxGeometry>
        </mxCell>
        <mxCell id="U2t02pCkMEgEyR6Hdg83-12" value="" style="edgeStyle=elbowEdgeStyle;rounded=0;orthogonalLoop=1;jettySize=auto;html=1;elbow=vertical;startArrow=none;endArrow=none;" parent="U2t02pCkMEgEyR6Hdg83-1" source="U2t02pCkMEgEyR6Hdg83-4" target="U2t02pCkMEgEyR6Hdg83-13" edge="1">
          <mxGeometry relative="1" as="geometry">
            <Array as="points">
              <mxPoint x="400" y="210" />
            </Array>
          </mxGeometry>
        </mxCell>
        <UserObject label="Login&amp;nbsp;" treeRoot="1" id="U2t02pCkMEgEyR6Hdg83-13">
          <mxCell style="whiteSpace=wrap;html=1;align=center;treeFolding=1;treeMoving=1;newEdgeStyle={&quot;edgeStyle&quot;:&quot;elbowEdgeStyle&quot;,&quot;startArrow&quot;:&quot;none&quot;,&quot;endArrow&quot;:&quot;none&quot;};" parent="U2t02pCkMEgEyR6Hdg83-1" vertex="1">
            <mxGeometry x="416" y="220" width="104" height="30" as="geometry" />
          </mxCell>
        </UserObject>
      </root>
    </mxGraphModel>
  </diagram>
</mxfile>
